<?xml version="1.0" encoding="UTF-8"?>
<svg id="Layer_1" data-name="Layer 1" xmlns="http://www.w3.org/2000/svg" viewBox="0 0 1001 501">
  <defs>
    <style>
      .cls-1 {
        fill: #fff;
      }

      .cls-2 {
        fill: none;
        stroke: #000;
        stroke-miterlimit: 10;
      }
    </style>
  </defs>
  <rect class="cls-2" x=".5" y=".5" width="1000" height="500"/>
  <rect class="cls-1" x=".5" y=".5" width="1000" height="500"/>
  <g>
    <path d="M233.6,191.66c14.9-8.83,32.92-11.6,49.96-9.2,9.24,1.43,18.47,4.14,26.46,9.1.89,3.44.56,7.18.86,10.74.35,5.12.74,10.26.86,15.4-16.94-16.41-44.88-20.37-65.41-8.55-11.83,6.77-20.21,19.01-22.52,32.42-1.92,11.44-.49,23.69,5.29,33.89,6.04,11.21,16.89,19.66,29.22,22.82,18.84,4.63,39.97.71,55.14-11.62-.62,7.38-1.41,14.74-2.18,22.1-.24,1.05,0,2.65-1.3,3.1-12.92,6.67-27.64,9.82-42.15,8.95-13.98-.5-27.91-5.04-39.18-13.37-12.94-9.37-22.46-23.39-26.38-38.89-3.86-15.08-2.75-31.51,3.77-45.71,5.67-12.9,15.37-24.05,27.57-31.16h0v-.02Z"/>
    <path d="M527.98,184.75c17.89,0,35.8.03,53.7.09,11.69.09,24.24,2.87,32.92,11.21,8.2,7.98,10.52,20.42,8.45,31.35-1.52,9.1-7.4,17.3-15.53,21.64,6.15,2.92,11.98,7.04,15.47,13.03,4.61,7.91,5.07,17.47,4.05,26.36-1.1,9.71-6.81,18.86-15.33,23.76-7.56,4.68-16.52,6.38-25.32,6.53-19.41,0-38.83-.12-58.24-.25-.29-43.41-.19-86.83-.37-130.24.11-1.15-.35-2.46.22-3.49h-.02ZM550.52,204.01c0,12.27.1,24.53,0,36.79,10.65.02,21.32.03,31.97-.07,7.56-.13,15.44-4.53,17.95-11.94,2.11-6.52,1.37-14.58-3.75-19.55-3.95-3.92-9.76-4.8-15.09-5.09-10.36-.09-20.73-.05-31.09-.13h.01ZM550.64,260.09c.37,12.95.28,25.93.34,38.9,11.26-.15,22.52,0,33.77-.16,4.89.04,9.88-1.33,13.77-4.37,7.32-5.51,8.43-16.44,4.63-24.32-3.48-6.58-11.14-10.06-18.38-9.98-11.38-.16-22.76.05-34.14-.06h0Z"/>
    <path d="M755.38,196.54c7.59.04,15.16.04,22.75.03v23.79c8.49-.03,16.98,0,25.47,0-.47,6.12-.26,12.27-.79,18.38l-.41.22c-8.1-.04-16.18.06-24.26-.06.04,16.77-.08,33.53,0,50.3.04,4.61,2.4,9.61,6.93,11.33,5.75,2.1,12.04.62,17.6-1.38-.54,6.57-.17,13.17.1,19.73-8.03,1.58-16.36,2.45-24.49,1.12-8.1-1.34-15.64-6.38-19.29-13.83-3.56-6.63-3.71-14.33-3.53-21.67v-45.52c-4.42.05-8.85.03-13.26.1-.04-6.24-.17-12.48-.36-18.71h13.62c-.03-7.94.04-15.87-.04-23.81l-.03-.02h0Z"/>
    <path d="M336.92,227.74c8.06-5.37,17.47-8.53,27.09-9.53,13.42-1,28.43.06,39.02,9.37,7.67,6.37,10.67,16.61,10.83,26.27.37,21.54-.07,43.09.28,64.63-7.68.02-15.36-.04-23.04,0,.06-2.79.12-5.56.13-8.34-4.95,4.35-10.72,7.88-17.19,9.43-9.2,2.25-18.99,2-28.12-.47-7.35-1.98-14.19-6.55-18.01-13.25-4.72-8.51-5.11-19.48-.43-28.09,3.25-6.26,9.19-10.69,15.53-13.5,7.05-3.28,14.9-4.25,22.6-4.35,8.54-.04,17.08-.02,25.62-.04-.32-5.33-.16-11.11-3.26-15.73-3.77-5.87-11-8.43-17.7-8.59-12.61-.26-24.44,5.68-34.02,13.46.61-7.09.21-14.2.67-21.3h-.02l.02.03ZM352.42,279.21c-5.6,4.54-6.2,13.77-1.49,19.16,2.34,2.7,5.79,4.22,9.25,4.88,6.12.86,12.64.62,18.33-2.04,5.67-2.66,10.11-7.77,12.11-13.69.92-4.32.45-8.79.74-13.18-8.07,0-16.14-.04-24.21,0-5.18.29-10.62,1.47-14.72,4.84v.02h0Z"/>
    <path d="M678.42,218.67c12.91-2.06,26.79-.21,37.95,6.91,9.1,5.62,15.69,14.69,19.34,24.65,4.54,12.55,4.23,26.72-.45,39.19-4.2,11.12-12.51,20.7-23.17,26.03-9.58,4.9-20.68,6.48-31.31,5.16-12.19-1.22-23.82-7.34-31.61-16.83-16.04-19.19-16.03-49.88.33-68.88,7.21-8.74,17.77-14.45,28.92-16.23h0ZM683.86,238.08c-10.53,1.07-19.64,9.02-22.52,19.14-2.63,8.22-2.35,17.31.54,25.43,2.35,6.59,7.02,12.52,13.39,15.6,8.83,4.22,19.93,3.9,28.17-1.58,10.22-6.74,14.02-19.96,12.98-31.66-.63-7.98-4.04-16-10.26-21.19-6.09-5.12-14.53-7-22.3-5.73h0Z"/>
    <path d="M416.08,220.33c8.18-.05,16.36.16,24.54.22,8.64,22.66,17.06,45.41,25.76,68.05.67,1.61.96,3.42,2.12,4.78,8.74-24.31,17.4-48.66,26.59-72.81,8.14-.33,16.29-.16,24.43-.29-12.96,32.16-25.77,64.38-38.5,96.62-.22.41-.69,1.23-.92,1.63-8.11.12-16.24.09-24.35-.25-13.27-32.63-26.35-65.35-39.67-97.97h0v.02Z"/>
  </g>
</svg>