<?xml version="1.0" encoding="UTF-8"?>
<svg id="Layer_1" data-name="Layer 1" xmlns="http://www.w3.org/2000/svg" viewBox="0 0 1001 501">
  <defs>
    <style>
      .cls-1 {
        fill: #f7fbff;
      }

      .cls-2 {
        fill: none;
        stroke: #000;
        stroke-miterlimit: 10;
      }

      .cls-3 {
        fill: #140c3d;
      }
    </style>
  </defs>
  <rect class="cls-2" x=".5" y=".5" width="1000" height="500"/>
  <rect class="cls-1" x=".5" y=".5" width="1000" height="500"/>
  <g>
    <path class="cls-3" d="M561.2,315.47c-7.92,5.3-16.61,9.5-25.8,12.03-7.71,2.1-15.69,3.12-23.67,3.32-14.96-.06-29.95-4.07-42.74-11.87-8.4-4.92-16.12-11.07-22.42-18.5-5.3-6.11-9.6-13.03-13.14-20.29-6.21-13.54-8.89-28.71-7.61-43.55,1.36-16.08,7.85-31.49,17.56-44.3,8.94-11.9,21.16-21.16,34.76-27.11,8.81-3.66,18.25-5.75,27.76-6.46,3.58-.07,7.16-.06,10.74,0,9.31.75,18.55,2.67,27.25,6.09,6.84,2.63,13.19,6.42,19.13,10.69,6.45,4.64,12.1,10.3,17.29,16.29,1.49-.85,2.76-2.02,4.15-3.03,6.37-4.78,12.72-9.59,18.94-14.57-12.75-14.77-28.56-27.17-46.68-34.64-16.3-6.75-34.11-9.61-51.71-8.74-18.94,1.16-37.7,6.76-53.89,16.73-17.19,10.58-31.38,25.91-40.78,43.75-7.76,14.77-12.3,31.29-12.66,47.99-.22,9.7.14,19.47,2.26,28.97,6.7,33,29.3,62.12,59.11,77.58,14.47,7.5,30.59,11.93,46.91,12.31,15.15.71,30.55-1.07,44.8-6.41,13.92-5.29,27.15-12.73,38.15-22.83,5.25-4.54,9.84-9.76,14.08-15.24-7.12-5.59-14.34-11.05-21.48-16.62-5.86,7.05-12.6,13.41-20.31,18.41h0Z"/>
    <path class="cls-3" d="M507.48,197.34c-4.89.39-9.72,1.53-14.25,3.48-18.25,7.84-30.31,28.13-28.49,47.9,1.82,19.78,17.38,37.52,36.75,41.9.84.19,1.69.36,2.54.49,6.3,1.03,12.79.66,18.97-.9,6.19-1.56,12.09-4.32,17.26-8.08,5.12-3.73,9.52-8.48,12.7-13.98,3.28-5.67,5.23-12.07,5.87-18.58.64-6.53,0-13.18-1.91-19.46-1.89-6.23-5.03-12.1-9.33-17-9.84-11.22-25.3-16.95-40.11-15.77h0ZM532.2,244.63c.1,5.04-2.06,10-5.53,13.62-4.14,4.35-10.29,6.66-16.26,6.24-5.17-.37-10.21-2.78-13.62-6.7-4.05-4.6-5.94-11.13-4.66-17.15,1.46-8.16,8.41-15.04,16.64-16.21,5.56-.97,11.5.59,15.89,4.13,4.77,3.83,7.77,9.92,7.54,16.07h0Z"/>
  </g>
</svg>