<?xml version="1.0" encoding="UTF-8"?>
<svg id="Layer_1" data-name="Layer 1" xmlns="http://www.w3.org/2000/svg" viewBox="0 0 1001 501">
  <defs>
    <style>
      .cls-1 {
        fill: #fff;
      }

      .cls-2 {
        fill: #b9c85a;
      }

      .cls-3 {
        fill: none;
        stroke: #000;
        stroke-miterlimit: 10;
      }

      .cls-4 {
        fill: #140c3d;
      }
    </style>
  </defs>
  <rect class="cls-3" x=".5" y=".5" width="1000" height="500"/>
  <rect class="cls-4" x=".5" y=".5" width="1000" height="500"/>
  <g>
    <path class="cls-1" d="M395.71,204.14c10.91-6.47,24.11-8.49,36.59-6.74,6.77,1.05,13.53,3.03,19.38,6.66.65,2.52.41,5.26.63,7.87.25,3.75.54,7.51.63,11.28-12.4-12.02-32.87-14.92-47.91-6.26-8.66,4.96-14.8,13.92-16.5,23.74-1.41,8.38-.36,17.35,3.88,24.82,4.43,8.21,12.37,14.4,21.4,16.71,13.8,3.39,29.27.52,40.39-8.51-.46,5.41-1.03,10.79-1.6,16.19-.18.77,0,1.94-.95,2.27-9.46,4.88-20.24,7.19-30.87,6.56-10.24-.37-20.44-3.69-28.7-9.79-9.48-6.87-16.45-17.13-19.32-28.48-2.82-11.04-2.01-23.08,2.76-33.48,4.15-9.45,11.26-17.61,20.19-22.82h0v-.02h0Z"/>
    <path class="cls-1" d="M611.31,199.08c13.1,0,26.22.02,39.33.07,8.57.07,17.75,2.11,24.11,8.21,6.01,5.85,7.7,14.95,6.19,22.96-1.11,6.66-5.42,12.67-11.38,15.85,4.5,2.14,8.77,5.16,11.33,9.55,3.37,5.79,3.71,12.8,2.97,19.31-.8,7.11-4.99,13.82-11.23,17.4-5.54,3.43-12.1,4.67-18.54,4.79-14.21,0-28.44-.09-42.66-.18-.21-31.8-.14-63.59-.27-95.39.08-.84-.25-1.8.16-2.56h-.01ZM627.82,213.19c0,8.98.07,17.97,0,26.94,7.8,0,15.61.02,23.41-.05,5.54-.1,11.3-3.31,13.15-8.75,1.54-4.77,1-10.68-2.75-14.32-2.9-2.87-7.15-3.52-11.05-3.73-7.59-.07-15.18-.04-22.77-.1h.01ZM627.91,254.26c.27,9.49.2,18.99.25,28.49,8.24-.11,16.5,0,24.73-.12,3.58.03,7.24-.97,10.08-3.2,5.36-4.03,6.17-12.04,3.39-17.81-2.55-4.82-8.16-7.37-13.46-7.31-8.34-.12-16.67.04-25-.05h.01Z"/>
    <path class="cls-1" d="M777.86,207.71c5.56.03,11.1.03,16.66.02v17.42c6.22-.02,12.44,0,18.65,0-.35,4.48-.19,8.98-.58,13.46l-.3.16c-5.93-.03-11.85.05-17.77-.05.03,12.28-.06,24.56,0,36.84.03,3.37,1.76,7.04,5.07,8.3,4.21,1.54,8.82.46,12.89-1.01-.39,4.81-.12,9.64.07,14.45-5.88,1.16-11.98,1.79-17.93.82-5.93-.98-11.45-4.67-14.13-10.13-2.61-4.86-2.72-10.49-2.58-15.87v-33.34c-3.24.04-6.48.02-9.71.07-.03-4.57-.12-9.14-.26-13.7h9.98c-.02-5.81.03-11.62-.03-17.44h-.03,0Z"/>
    <path class="cls-1" d="M471.39,230.56c5.9-3.94,12.8-6.24,19.84-6.98,9.83-.73,20.82.05,28.58,6.87,5.62,4.67,7.81,12.17,7.93,19.24.27,15.78-.05,31.56.2,47.34-5.62.01-11.25-.03-16.88,0,.05-2.04.08-4.07.1-6.11-3.62,3.18-7.85,5.77-12.59,6.9-6.74,1.65-13.91,1.46-20.6-.35-5.38-1.45-10.4-4.8-13.19-9.7-3.46-6.23-3.74-14.27-.31-20.58,2.38-4.58,6.73-7.83,11.38-9.89,5.17-2.4,10.91-3.11,16.55-3.18,6.26-.03,12.51,0,18.76-.03-.24-3.9-.12-8.13-2.39-11.52-2.76-4.3-8.06-6.17-12.97-6.29-9.23-.19-17.9,4.16-24.92,9.86.44-5.19.15-10.4.49-15.6h-.01l.03.02h0ZM482.74,268.26c-4.1,3.33-4.54,10.09-1.09,14.03,1.71,1.98,4.24,3.09,6.77,3.58,4.49.63,9.26.46,13.42-1.49,4.15-1.95,7.41-5.69,8.87-10.02.67-3.16.33-6.44.54-9.65-5.91,0-11.82-.03-17.73,0-3.79.22-7.78,1.08-10.78,3.54h0Z"/>
    <path class="cls-1" d="M721.49,223.92c9.45-1.51,19.62-.15,27.79,5.06,6.66,4.12,11.49,10.76,14.16,18.05,3.33,9.19,3.1,19.57-.33,28.7-3.07,8.15-9.16,15.16-16.97,19.07-7.02,3.59-15.14,4.75-22.93,3.78-8.93-.9-17.44-5.37-23.15-12.32-11.75-14.06-11.74-36.53.24-50.45,5.28-6.4,13.02-10.59,21.18-11.89h.01ZM725.48,238.14c-7.71.78-14.38,6.6-16.5,14.02-1.93,6.02-1.72,12.68.4,18.63,1.72,4.83,5.14,9.17,9.81,11.42,6.47,3.09,14.6,2.86,20.63-1.16,7.49-4.94,10.27-14.62,9.51-23.18-.46-5.85-2.96-11.72-7.51-15.52-4.46-3.75-10.64-5.13-16.33-4.2h-.01Z"/>
    <path class="cls-1" d="M529.36,225.14c5.99-.04,11.98.12,17.97.16,6.33,16.59,12.49,33.26,18.87,49.84.49,1.18.71,2.5,1.56,3.5,6.4-17.8,12.74-35.64,19.47-53.33,5.96-.24,11.93-.12,17.89-.21-9.49,23.55-18.88,47.15-28.2,70.76-.16.3-.5.9-.67,1.2-5.94.08-11.89.07-17.84-.18-9.72-23.9-19.3-47.86-29.06-71.75h.01Z"/>
  </g>
  <g>
    <path class="cls-1" d="M294.18,297.38c-5.27,3.53-11.05,6.32-17.17,8.01-5.13,1.4-10.44,2.07-15.75,2.21-9.95-.04-19.93-2.71-28.44-7.9-5.59-3.27-10.72-7.36-14.92-12.31-3.52-4.07-6.39-8.67-8.74-13.5-4.13-9.01-5.91-19.1-5.06-28.98.9-10.7,5.22-20.95,11.68-29.48,5.95-7.92,14.08-14.08,23.13-18.04,5.86-2.44,12.14-3.83,18.47-4.3,2.38-.04,4.76-.04,7.14,0,6.19.5,12.34,1.78,18.13,4.05,4.55,1.75,8.78,4.27,12.73,7.11,4.29,3.09,8.05,6.85,11.51,10.84.99-.57,1.84-1.35,2.76-2.02,4.24-3.18,8.47-6.38,12.6-9.69-8.49-9.83-19-18.08-31.06-23.05-10.84-4.49-22.7-6.4-34.4-5.82-12.61.77-25.09,4.5-35.86,11.13-11.44,7.04-20.88,17.24-27.14,29.11-5.16,9.82-8.19,20.82-8.43,31.93-.15,6.45.09,12.96,1.5,19.28,4.46,21.96,19.5,41.34,39.33,51.62,9.63,4.99,20.36,7.94,31.21,8.19,10.08.47,20.33-.71,29.81-4.26,9.26-3.52,18.07-8.47,25.39-15.19,3.49-3.02,6.55-6.49,9.37-10.14-4.74-3.72-9.54-7.36-14.29-11.06-3.9,4.69-8.39,8.92-13.51,12.25h0Z"/>
    <path class="cls-2" d="M258.43,218.78c-3.26.26-6.47,1.02-9.48,2.31-12.14,5.22-20.17,18.71-18.96,31.87,1.21,13.16,11.57,24.96,24.45,27.88.56.13,1.12.24,1.69.33,4.19.69,8.51.44,12.62-.6,4.12-1.04,8.05-2.87,11.48-5.38,3.41-2.49,6.34-5.64,8.45-9.3,2.18-3.78,3.48-8.03,3.91-12.37s0-8.77-1.27-12.95c-1.26-4.15-3.35-8.05-6.21-11.31-6.55-7.47-16.83-11.28-26.69-10.49h0ZM274.89,250.24c.07,3.35-1.37,6.66-3.68,9.06-2.76,2.9-6.85,4.43-10.82,4.15-3.44-.25-6.79-1.85-9.06-4.46-2.69-3.06-3.95-7.4-3.1-11.41.97-5.43,5.59-10.01,11.07-10.79,3.7-.65,7.65.39,10.57,2.75,3.18,2.55,5.17,6.6,5.02,10.7h0Z"/>
  </g>
</svg>